<?xml version="1.0" encoding="UTF-8"?>
<svg version="1.1" xmlns="http://www.w3.org/2000/svg" width="2000" height="400">
<path d="M0 0 C4.09191627 2.99927196 7.09403167 6.41691829 10.125 10.4375 C13.80722884 15.22690241 17.56410529 19.91670315 21.5 24.5 C25.6914341 29.3958145 29.70839124 34.40078498 33.6640625 39.48828125 C37.36158913 44.22736468 41.16511826 48.87162273 45 53.5 C50.70448315 60.38868139 56.26745049 67.37363983 61.76708984 74.42626953 C64.81064543 78.31117237 67.90736193 82.15414062 71 86 C69.62137225 89.20334595 68.12739156 90.99724415 65.41015625 93.1640625 C64.70826172 93.72867188 64.00636719 94.29328125 63.28320312 94.875 C62.55037109 95.4525 61.81753906 96.03 61.0625 96.625 C60.33353516 97.21023437 59.60457031 97.79546875 58.85351562 98.3984375 C55.95482528 100.71526425 53.08990123 102.94006585 50 105 C49.54932264 106.92292041 49.54932264 106.92292041 49.6257782 109.17047119 C49.61876389 110.04488861 49.61174957 110.91930603 49.60452271 111.82022095 C49.61216644 112.78221405 49.61981018 113.74420715 49.62768555 114.73535156 C49.62403488 115.747034 49.62038422 116.75871643 49.61662292 117.80105591 C49.60848236 121.16441366 49.62216809 124.52729443 49.63671875 127.890625 C49.63723742 130.23077392 49.63671946 132.57092329 49.63520813 134.91107178 C49.63529804 139.83075417 49.6457571 144.75027336 49.66381836 149.66992188 C49.6863562 155.94392995 49.6870788 162.21769628 49.68030071 168.49173355 C49.67693828 173.33394475 49.68363586 178.176102 49.69342995 183.01830292 C49.69725449 185.32891303 49.69844167 187.63952918 49.6968441 189.95014191 C48.94762211 215.36756926 48.94762211 215.36756926 58.25 238.375 C66.54413019 246.29212427 77.80264805 247.49072076 88.8828125 247.24609375 C98.00108455 246.52623017 106.5690745 244.90446158 113 238 C123.08872679 225.60754819 121.40378505 206.17826026 121.31899452 191.21185493 C121.30039316 187.61639269 121.30335419 184.02150449 121.3120575 180.42601013 C121.333716 170.21628595 121.32281434 160.00679258 121.28491211 149.79711914 C121.26310295 143.52151547 121.27035337 137.24648272 121.2953701 130.97089958 C121.29895387 128.59194907 121.29135393 126.21295328 121.27211952 123.83407784 C121.24573762 120.51056904 121.25623916 117.18899899 121.2746582 113.86547852 C121.25772415 112.89439148 121.2407901 111.92330444 121.2233429 110.92279053 C121.3631622 100.54629079 127.4388818 94.0275737 134.5 87 C135.04269531 86.42894531 135.58539062 85.85789062 136.14453125 85.26953125 C138.70740484 82.69442437 140.61289398 81.14926968 144.0390625 79.828125 C148.131062 80.06565531 150.09541386 81.98515967 152.875 84.75 C153.35324219 85.18699219 153.83148437 85.62398438 154.32421875 86.07421875 C160.57596444 92.02904776 167.23148349 98.94698933 167.98222351 107.84672546 C168.01407108 109.96229286 168.00308333 112.07881287 167.95581055 114.1940918 C167.96179764 115.35993301 167.96778473 116.52577423 167.97395325 117.72694397 C167.98361383 121.55218917 167.93616051 125.37431812 167.88671875 129.19921875 C167.87939954 131.88048453 167.87495361 134.56161344 167.87397766 137.24287415 C167.86568494 142.85396299 167.82726779 148.46417663 167.76831055 154.07495117 C167.70074789 160.51938278 167.67069007 166.96306675 167.6633355 173.40783185 C167.65616104 179.65335336 167.63158648 185.89865989 167.59613991 192.14408302 C167.58166995 194.77958541 167.57013381 197.41510573 167.56171227 200.05063438 C167.4598965 223.43614437 166.65635395 245.20028542 151 264 C150.18402344 264.98613281 150.18402344 264.98613281 149.3515625 265.9921875 C135.40808744 281.29600159 112.06646162 285.00509417 92.38671875 286.15234375 C69.59801066 287.01686227 42.64987901 285.19186925 24.6875 269.6875 C8.77696083 254.33701181 4.05346928 235.14647421 3.56762695 213.61279297 C3.51660889 210.32252524 3.50037661 207.03279357 3.48828125 203.7421875 C3.47137711 201.97428185 3.45321952 200.2063878 3.43388367 198.43850708 C3.38699865 193.85206738 3.356796 189.26567462 3.33044434 184.67907715 C3.30032298 179.97215491 3.25390395 175.2653939 3.20898438 170.55859375 C3.12365396 161.37248127 3.05600193 152.18633493 3 143 C1.55367187 144.24716797 1.55367187 144.24716797 0.078125 145.51953125 C-1.19785987 146.61725353 -2.47390469 147.71490612 -3.75 148.8125 C-4.70132812 149.63331055 -4.70132812 149.63331055 -5.671875 150.47070312 C-8.71269962 153.08391179 -11.74281371 155.6558129 -15 158 C-19.28896369 156.45756526 -21.43522686 153.20563013 -24.0625 149.6875 C-25.04084624 148.40852985 -26.02136989 147.13122277 -27.00390625 145.85546875 C-27.50164551 145.20884277 -27.99938477 144.5622168 -28.51220703 143.89599609 C-30.76224634 141.02861748 -33.12423182 138.26334415 -35.5 135.5 C-39.69173308 130.60445328 -43.7084038 125.59919887 -47.6640625 120.51171875 C-51.3615864 115.77263883 -55.16501424 111.12828768 -59 106.5 C-63.78150357 100.72832484 -68.47622496 94.90276467 -73.07348633 88.98339844 C-76.97570788 83.97699488 -81.06177095 79.1412058 -85.19921875 74.328125 C-87 72 -87 72 -87 70 C-75.45 70 -63.9 70 -52 70 C-48.04 52.675 -48.04 52.675 -44 35 C-31.79 34.67 -19.58 34.34 -7 34 C-5.44072625 25.43026344 -5.44072625 25.43026344 -3.88916016 16.85913086 C-2.84003281 11.14356361 -1.76195554 5.54110316 0 0 Z " fill="#FEFEFE" transform="translate(1617,4)"/>
<path d="M0 0 C0.75414185 -0.00428513 1.50828369 -0.00857025 2.28527832 -0.01298523 C3.87197876 -0.01870128 5.4587054 -0.019249 7.04541016 -0.01489258 C9.46172006 -0.01172796 11.87680944 -0.03524035 14.29296875 -0.06054688 C15.8411443 -0.06281983 17.38932312 -0.06352338 18.9375 -0.0625 C19.65329224 -0.07170975 20.36908447 -0.08091949 21.10656738 -0.09040833 C26.74604441 -0.03881961 30.67276934 1.26264884 34.90136719 5.01635742 C39.07623373 9.90408306 42.30245481 14.89110616 45.21875 20.61328125 C45.68345703 21.51570557 46.14816406 22.41812988 46.62695312 23.34790039 C52.49965722 35.01328015 57.28905016 47.11841807 61.96875 59.30078125 C62.43845215 60.52039551 62.9081543 61.74000977 63.39208984 62.99658203 C70.11397764 80.53125015 75.91279358 98.21575966 80.96875 116.30078125 C81.41190552 114.91632813 81.41190552 114.91632813 81.86401367 113.50390625 C113.58308728 14.79413633 113.58308728 14.79413633 133.96875 2.30078125 C141.0416436 -0.09135276 147.8444458 -0.0365838 155.21142578 -0.01489258 C157.46305524 -0.01172676 159.7133756 -0.03525776 161.96484375 -0.06054688 C163.41406086 -0.06281991 164.86328147 -0.06352334 166.3125 -0.0625 C167.61380859 -0.06548096 168.91511719 -0.06846191 170.25585938 -0.0715332 C175.37771643 0.44206701 179.30263881 1.81979352 183.21875 5.30078125 C203.82534144 40.62636658 193.16707419 109.22864654 193.21417618 148.83911133 C193.21875442 152.05388257 193.22648348 155.26863466 193.23471069 158.48339844 C193.2464385 163.58361972 193.24663235 168.68371756 193.23757744 173.78394318 C193.23545215 175.69273038 193.23656793 177.6015241 193.24101448 179.51030731 C193.24609013 182.13817835 193.23857531 184.76570891 193.22753906 187.39355469 C193.2315935 188.17126221 193.23564795 188.94896973 193.23982525 189.75024414 C193.19733439 195.07219686 193.19733439 195.07219686 190.96875 197.30078125 C188.05141569 197.51301619 185.23142581 197.60474289 182.3125 197.6015625 C181.45442749 197.60584763 180.59635498 197.61013275 179.71228027 197.61454773 C177.89657474 197.62029533 176.08084618 197.62078813 174.26513672 197.61645508 C171.47974601 197.61329373 168.69541563 197.63675303 165.91015625 197.66210938 C164.14843885 197.66438211 162.38671857 197.66508599 160.625 197.6640625 C159.78851929 197.67327225 158.95203857 197.68248199 158.09020996 197.69197083 C155.74414062 197.6730957 155.74414062 197.6730957 151.96875 197.30078125 C149.84071618 194.10873053 149.71560086 193.29814441 149.69700623 189.63523865 C149.68242874 188.19610863 149.68242874 188.19610863 149.66755676 186.72790527 C149.66696762 185.67615112 149.66637848 184.62439697 149.66577148 183.54077148 C149.65733215 182.43117569 149.64889282 181.3215799 149.64019775 180.17835999 C149.61430151 176.48869407 149.60223585 172.79910892 149.58984375 169.109375 C149.5736561 166.53035358 149.55647479 163.95133822 149.53834534 161.37232971 C149.49721004 155.24812876 149.46427968 149.12393796 149.43587118 142.99966627 C149.38221745 131.46911884 149.31254514 119.93867978 149.23793221 108.40825081 C149.21551425 104.65901049 149.19895956 100.90978064 149.18321228 97.1605072 C149.10178162 81.52290386 148.67705053 65.92258118 147.96875 50.30078125 C131.70248626 88.35090408 116.22853703 127.05117676 104.5534668 166.79125977 C101.82310877 175.762876 101.82310877 175.762876 97.96875 178.30078125 C91.6600098 180.92388902 85.21530016 180.59812546 78.46875 180.55078125 C77.36660156 180.55851563 76.26445313 180.56625 75.12890625 180.57421875 C61.20582871 180.54078999 61.20582871 180.54078999 57.47753906 176.80761719 C55.23357935 173.07930353 54.15937308 169.11152941 52.921875 164.95703125 C52.32586832 163.01008442 51.72983863 161.06314464 51.13378906 159.11621094 C50.82219849 158.08765991 50.51060791 157.05910889 50.1895752 155.99938965 C48.53438617 150.54598616 46.84673096 145.10270702 45.15625 139.66015625 C44.80999573 138.54529846 44.46374146 137.43044067 44.10699463 136.28179932 C35.72951193 109.42438957 26.62961341 82.78210463 15.9675293 56.74047852 C14.95444835 54.2658469 13.95891303 51.78466007 12.96875 49.30078125 C11.91915232 68.98035584 10.90798174 88.66100189 10.40625 108.36328125 C10.38682343 109.1086615 10.36739685 109.85404175 10.34738159 110.62200928 C10.06852119 121.62675058 9.92554242 132.63195618 9.81566811 143.63945961 C9.77019842 148.04710808 9.71759242 152.45468002 9.66546535 156.86225414 C9.61477726 161.2551837 9.57827679 165.6479564 9.55193424 170.04109573 C9.53716207 172.13205624 9.51568282 174.22282143 9.49128723 176.31369019 C9.46126858 178.90426068 9.44221159 181.49498792 9.43559265 184.08572388 C9.41898087 185.24232513 9.40236908 186.39892639 9.38525391 187.59057617 C9.37716705 188.60101486 9.3690802 189.61145355 9.36074829 190.6525116 C8.90486461 193.73237941 8.17327864 195.1192003 5.96875 197.30078125 C3.21964988 197.70663726 0.874687 197.86208983 -1.875 197.83203125 C-2.64050171 197.83585815 -3.40600342 197.83968506 -4.19470215 197.84362793 C-5.81194373 197.84634792 -7.42922923 197.83898043 -9.04638672 197.82226562 C-11.52280693 197.80085425 -13.99632634 197.82206111 -16.47265625 197.84765625 C-18.04427724 197.84501299 -19.61589643 197.83988803 -21.1875 197.83203125 C-21.92818726 197.84012817 -22.66887451 197.8482251 -23.43200684 197.85656738 C-28.54113567 197.76331662 -28.54113567 197.76331662 -30.73283386 195.69494629 C-32.48002923 192.47327186 -32.3666569 190.13589084 -32.31176758 186.4765625 C-32.30561369 185.79474946 -32.2994598 185.11293642 -32.29311943 184.41046238 C-32.26876068 182.14427834 -32.22245493 179.87910715 -32.17578125 177.61328125 C-32.15350801 176.01229931 -32.13243894 174.41130022 -32.11250305 172.81028748 C-32.0547343 168.52632793 -31.97689588 164.24295979 -31.89389801 159.95942307 C-31.84376133 157.30138169 -31.79895643 154.64330513 -31.75604248 151.98513794 C-31.06637571 109.33629814 -30.17294022 66.46037607 -24.59375 24.11328125 C-24.49586182 23.32445557 -24.39797363 22.53562988 -24.29711914 21.72290039 C-23.33375066 15.14604393 -21.36337124 8.6942741 -16.65625 3.86328125 C-11.25370855 0.64748277 -6.1919522 -0.00788412 0 0 Z " fill="#FFFEFE" transform="translate(51.03125,88.69921875)"/>
<path d="M0 0 C2.44775573 1.65993886 4.46284019 3.21983354 6.625 5.1875 C7.18445312 5.67025391 7.74390625 6.15300781 8.3203125 6.65039062 C11.58913886 9.52217794 14.38020132 12.50480517 17 16 C19.85505551 14.67309094 22.17834872 13.16043795 24.625 11.1875 C39.73109656 -0.27519664 57.97759779 -0.99059065 76.32275391 1.28857422 C86.28365918 3.14984195 93.09212167 8.98442646 100 16 C103.16684107 14.55341828 105.98696442 12.71351349 108.87304688 10.77539062 C125.12357844 -0.08745125 144.52786286 -1.66998418 163.7265625 1.68359375 C175.38023355 4.54360874 184.04687076 10.15607305 191 20 C199.57892661 35.30837034 199.44026988 52.79046624 199.328125 69.80078125 C199.32505949 71.85580811 199.3231894 73.91083707 199.32244873 75.96586609 C199.31788371 80.23603481 199.30359477 84.50601092 199.28125 88.77612305 C199.25273622 94.25261531 199.24201083 99.72895828 199.2375679 105.20551777 C199.23341992 109.43217966 199.2236114 113.65881144 199.21169281 117.88545799 C199.20599736 119.90651396 199.20123626 121.92757279 199.19742584 123.94863319 C199.19057183 126.75788143 199.1769495 129.56701044 199.16113281 132.3762207 C199.16001495 133.20991684 199.15889709 134.04361298 199.15774536 134.90257263 C199.13317334 138.18815974 199.04625892 140.86122324 198 144 C194.68647254 145.65676373 190.98659638 145.16312244 187.34375 145.16796875 C186.48567749 145.17129715 185.62760498 145.17462555 184.74353027 145.17805481 C182.92782122 145.18312138 181.11210284 145.18546322 179.29638672 145.18530273 C176.5112383 145.18749117 173.72648464 145.20565489 170.94140625 145.22460938 C169.17968886 145.2275429 167.41796958 145.22952797 165.65625 145.23046875 C164.40152893 145.24124702 164.40152893 145.24124702 163.12145996 145.25224304 C157.22882612 145.22882612 157.22882612 145.22882612 155 143 C154.79311146 140.50955896 154.70949375 138.12786644 154.71289062 135.63549805 C154.70605759 134.87580215 154.69922455 134.11610626 154.69218445 133.33338928 C154.67857221 131.67902789 154.66953452 130.02462412 154.66447449 128.37021446 C154.65618452 125.7409497 154.63567107 123.11203218 154.61193848 120.48286438 C154.56363116 114.88446141 154.53083561 109.28602276 154.5 103.6875 C154.46419028 97.23492208 154.42184999 90.78250915 154.36405945 84.33008766 C154.34421644 81.75964145 154.33571206 79.18932644 154.32775879 76.61882019 C154.73030781 59.53381249 154.73030781 59.53381249 149 44 C142.56746976 38.06227978 137.29345236 37.47707209 128.71875 37.66796875 C123.83443861 38.10406798 121.10384106 39.39563933 117 42 C116.01 42.33 115.02 42.66 114 43 C112.87914688 45.3430809 112.87914688 45.3430809 112 48 C111.65625839 48.5366478 111.31251678 49.07329559 110.95835876 49.62620544 C109.50444145 53.22746746 109.71688404 56.84226062 109.72875977 60.66821289 C109.72353302 61.54179947 109.71830627 62.41538605 109.71292114 63.31544495 C109.70268889 65.20989754 109.69690209 67.10437819 109.69503975 68.9988575 C109.69137873 71.99517607 109.67466082 74.9911629 109.65428162 77.9874115 C109.59883298 86.50529833 109.56813161 95.02323346 109.54370117 103.54125977 C109.52785338 108.75254026 109.49766748 113.96358376 109.45893669 119.17474174 C109.4472658 121.16228158 109.44135616 123.14986373 109.44125557 125.13743782 C109.44106416 127.91227203 109.4228466 130.68644915 109.40063477 133.46118164 C109.40521194 134.2856781 109.40978912 135.11017456 109.414505 135.95965576 C109.34323499 141.54151923 109.34323499 141.54151923 107.71897793 143.71114254 C104.68252341 145.98781927 100.89627356 145.40371966 97.24609375 145.36328125 C95.96110741 145.36402901 95.96110741 145.36402901 94.65016174 145.36479187 C92.84039997 145.36245239 91.03063488 145.35273121 89.22094727 145.33618164 C86.44452985 145.31255981 83.66907067 145.31562506 80.89257812 145.32226562 C79.13541092 145.31668986 77.37824777 145.30958062 75.62109375 145.30078125 C74.78775009 145.30169266 73.95440643 145.30260406 73.09580994 145.30354309 C67.23103346 145.23103346 67.23103346 145.23103346 65 143 C64.79303337 140.43355663 64.70950036 137.97265845 64.71289062 135.40429688 C64.70605759 134.62027496 64.69922455 133.83625305 64.69218445 133.0284729 C64.67857333 131.32172016 64.66953493 129.61492635 64.66447449 127.90812683 C64.65619229 125.19987815 64.63568852 122.49196782 64.61193848 119.78381348 C64.5636322 114.02259265 64.53080737 108.26133741 64.5 102.5 C64.46424941 95.8498347 64.42205749 89.19983149 64.36405945 82.54981995 C64.34413072 79.894478 64.33569597 77.23926309 64.32775879 74.5838623 C64.72206287 57.7517977 64.72206287 57.7517977 57.35546875 43.33984375 C51.51829694 38.14168865 47.06752208 37.66852554 39.30859375 37.703125 C34.67404357 38.11897602 31.94450727 39.58946778 28 42 C27.01 42.33 26.02 42.66 25 43 C23.93283296 44.79932579 23.93283296 44.79932579 23 47 C22.49263809 47.6902829 21.98527618 48.3805658 21.46253967 49.09176636 C19.46577156 53.06230357 19.57485717 56.39714055 19.59936523 60.78173828 C19.59238617 61.65547089 19.5854071 62.52920349 19.57821655 63.42941284 C19.55826337 66.3098113 19.5587401 69.18985114 19.55859375 72.0703125 C19.54682214 74.07381151 19.53345845 76.07730175 19.51856995 78.08078003 C19.48239223 83.35019258 19.46218267 88.61952732 19.44702148 93.88903809 C19.42218278 102.33069624 19.38263706 110.77218253 19.32512093 119.21368027 C19.30876377 122.16463971 19.30501196 125.11543752 19.30210876 128.06643677 C19.29233538 129.86997764 19.28207259 131.67351596 19.27124023 133.47705078 C19.27379318 134.2999762 19.27634613 135.12290161 19.27897644 135.97076416 C19.24398251 139.83594135 19.19434777 141.70847834 17 145 C13.97288984 145.30385765 11.15412526 145.41986798 8.125 145.3984375 C6.80459717 145.40274277 6.80459717 145.40274277 5.45751953 145.40713501 C3.59472003 145.40917828 1.7318992 145.40363009 -0.13085938 145.39111328 C-2.98876741 145.37506308 -5.84526116 145.39095282 -8.703125 145.41015625 C-10.5104198 145.40817386 -12.31771372 145.40433029 -14.125 145.3984375 C-14.98335449 145.40451019 -15.84170898 145.41058289 -16.72607422 145.4168396 C-19.1328125 145.38818359 -19.1328125 145.38818359 -23 145 C-25.16889351 141.74665973 -25.26218607 140.78178205 -25.31452942 137.01246643 C-25.33317551 135.98232925 -25.35182159 134.95219208 -25.37103271 133.89083862 C-25.38112366 132.76098541 -25.3912146 131.6311322 -25.40161133 130.46704102 C-25.4195726 129.2764357 -25.43753387 128.08583038 -25.45603943 126.85914612 C-25.51089031 122.90746912 -25.54923292 118.95581089 -25.58203125 115.00390625 C-25.58797735 114.33015418 -25.59392345 113.65640211 -25.60004973 112.9622333 C-25.65600512 106.59907731 -25.70465204 100.23591237 -25.73419666 93.87257481 C-25.77225443 85.75462078 -25.84717671 77.6389464 -25.97403508 69.52187973 C-26.06033131 63.80364022 -26.10380777 58.08600868 -26.11631411 52.36713737 C-26.12488012 48.95747195 -26.15150214 45.55031196 -26.22416115 42.14135933 C-26.66080103 18.62608385 -26.66080103 18.62608385 -21.1950407 11.98442745 C-18.96452226 9.73160046 -16.57297005 7.84640418 -14 6 C-12.55638028 4.75707267 -11.11731849 3.50877931 -9.6875 2.25 C-6.46841872 -0.2673939 -4.04855897 -0.59113929 0 0 Z " fill="#FFFEFE" transform="translate(1099,141)"/>
<path d="M0 0 C1.20598343 -0.00960754 2.41196686 -0.01921509 3.65449524 -0.02911377 C4.9482457 -0.03336365 6.24199615 -0.03761353 7.57495117 -0.04199219 C8.24328161 -0.04481956 8.91161205 -0.04764694 9.60019493 -0.05056 C13.14704144 -0.06551717 16.69384776 -0.07476475 20.24072266 -0.07910156 C23.13928983 -0.08346347 26.03755552 -0.09726992 28.93603516 -0.12011719 C81.00902099 -0.52265498 81.00902099 -0.52265498 101.18041992 17.91113281 C110.27070941 27.4680696 111.27913417 38.9066751 111.07885742 51.37597656 C110.67701748 61.57515164 106.4750441 68.67918261 99.80541992 76.16113281 C99.05518555 77.06798828 99.05518555 77.06798828 98.28979492 77.99316406 C92.93498292 83.98352193 85.80271097 87.42471526 78.80541992 91.16113281 C79.61624023 91.36867188 80.42706055 91.57621094 81.26245117 91.79003906 C94.71786417 95.53374536 105.46660302 102.0987115 113.05541992 113.97363281 C120.14059924 126.68527805 120.78786874 141.57364266 117.68041992 155.72363281 C113.07734082 170.97402106 103.55532198 181.11974581 89.90698242 188.79003906 C70.45975731 198.56263707 49.86748738 197.76166925 28.70300293 197.61065674 C25.49347817 197.59456091 22.28424705 197.60462995 19.07471466 197.61477566 C15.95175827 197.6217656 12.82897383 197.61390921 9.70603943 197.60151863 C8.22945314 197.59705008 6.75284812 197.59662639 5.27626038 197.60058403 C-4.39144034 197.61439449 -13.19324005 197.31012468 -21.56958008 192.03613281 C-27.61464641 185.41534587 -29.31497817 177.62603855 -29.32829285 168.84991455 C-29.33255783 167.57709625 -29.33682281 166.30427795 -29.34121704 164.9928894 C-29.34086755 163.58966061 -29.34040604 162.18643185 -29.33984375 160.78320312 C-29.34283727 159.29954952 -29.34624024 157.81589668 -29.35002136 156.33224487 C-29.35884725 152.30726746 -29.36119892 148.28231132 -29.36183715 144.25732517 C-29.3625486 141.74005729 -29.36468476 139.2227948 -29.36733437 136.70552826 C-29.37658404 127.91598671 -29.38066984 119.12646032 -29.37988281 110.33691406 C-29.37928254 102.15665705 -29.38982541 93.97646609 -29.40562648 85.79622579 C-29.41872491 78.76334297 -29.42406572 71.73048168 -29.4234274 64.69758677 C-29.42317304 60.50158665 -29.42599012 56.30564521 -29.43660545 52.10965729 C-29.44632492 48.15995296 -29.44633936 44.21036294 -29.43908882 40.26065445 C-29.43804766 38.81635241 -29.44037787 37.3720431 -29.44644928 35.92775345 C-29.53270284 13.97597817 -29.53270284 13.97597817 -22.19458008 6.16113281 C-15.18003592 1.44183182 -8.37128948 0.05420044 0 0 Z M18.24291992 37.53613281 C16.16405978 41.33231221 15.68096102 44.4809904 15.66497803 48.77780151 C15.65926788 49.70018616 15.65355774 50.6225708 15.64767456 51.57290649 C15.6465567 52.57768036 15.64543884 53.58245422 15.64428711 54.61767578 C15.6393222 55.68151489 15.6343573 56.745354 15.62924194 57.84143066 C15.61463218 61.36206711 15.60782073 64.88265852 15.60229492 68.40332031 C15.59654308 70.8494568 15.59078535 73.29559328 15.58502197 75.74172974 C15.57451577 80.87127899 15.56867041 86.00081259 15.56518555 91.13037109 C15.55969759 97.70331666 15.53566129 104.27605542 15.50721359 110.84893608 C15.48859235 115.90183111 15.48338191 120.95467624 15.48184967 126.00760269 C15.47882214 128.43090065 15.47079028 130.85419771 15.45766449 133.27746201 C15.44061304 136.66706864 15.44248216 140.05616867 15.44897461 143.44580078 C15.43975983 144.44652618 15.43054504 145.44725159 15.42105103 146.478302 C15.4529738 151.7978031 15.79600312 155.57285807 18.80541992 160.16113281 C23.95342634 164.82651363 29.29793046 164.37475917 35.86791992 164.41113281 C36.77219727 164.43175781 37.67647461 164.45238281 38.6081543 164.47363281 C48.77517034 164.53177157 58.12283935 162.08606244 65.80541992 155.16113281 C70.63729955 149.24525155 72.1550533 142.71102853 71.80541992 135.16113281 C70.70856711 128.08871727 67.17593881 122.80505208 61.80541992 118.16113281 C56.60980158 114.6167535 51.4818163 113.94774326 45.30541992 113.34863281 C37.83856462 112.50487816 34.13135728 110.2517878 28.80541992 105.16113281 C28.1015918 104.65066406 27.39776367 104.14019531 26.67260742 103.61425781 C26.01518555 103.13472656 25.35776367 102.65519531 24.68041992 102.16113281 C24.1003418 101.74863281 23.52026367 101.33613281 22.92260742 100.91113281 C21.80541992 99.16113281 21.80541992 99.16113281 21.76245117 95.80566406 C23.02206572 91.40408962 25.08624428 89.49634714 28.61791992 86.84863281 C29.15223633 86.42001953 29.68655273 85.99140625 30.23706055 85.54980469 C34.8580284 81.90645857 38.18894139 80.11464536 43.99291992 79.41113281 C49.9490606 78.37597467 54.39652693 76.34087336 58.80541992 72.16113281 C63.50724206 65.38842503 64.45611809 58.24162092 63.80541992 50.16113281 C62.91108705 45.63313251 61.76888962 42.20718563 58.61791992 38.78613281 C48.61481003 33.00655821 27.75496827 28.720088 18.24291992 37.53613281 Z " fill="#FFFEFE" transform="translate(1855.194580078125,88.8388671875)"/>
<path d="M0 0 C2.18085285 0.00315012 4.36033005 -0.02036031 6.54101562 -0.0456543 C26.69621976 -0.13688899 45.97693872 4.01460793 60.88476562 18.44067383 C64.8912134 22.4714031 66.69773427 25.52032538 66.71289062 31.27270508 C66.71546875 32.22081055 66.71804688 33.16891602 66.72070312 34.14575195 C66.71296875 35.12995117 66.70523438 36.11415039 66.69726562 37.12817383 C66.705 38.10077148 66.71273437 39.07336914 66.72070312 40.07543945 C66.70596361 45.51800627 66.42312562 50.21600701 64.44726562 55.31567383 C60.89496115 57.09182607 56.79663948 56.50036155 52.88476562 56.50317383 C52.01529297 56.51541992 51.14582031 56.52766602 50.25 56.5402832 C36.03172821 56.57209142 36.03172821 56.57209142 31.16992188 52.32739258 C30.34814453 51.1769043 30.34814453 51.1769043 29.50976562 50.00317383 C24.75592828 44.08707565 18.83870477 40.91256354 11.44726562 39.31567383 C-3.63198262 38.05399408 -16.50951138 39.46212774 -28.55273438 49.31567383 C-40.386381 60.38585938 -44.86710851 76.93787144 -45.67675781 92.7355957 C-46.33705706 114.24015625 -44.76711926 136.60391539 -29.55273438 153.31567383 C-18.14467221 163.64641478 -3.50626208 166.03556785 11.41748047 165.46948242 C17.40199454 165.01600108 24.06777024 164.00542152 29.44726562 161.31567383 C29.45091125 160.75492661 29.45455688 160.19417938 29.45831299 159.61643982 C29.50025013 153.7595025 29.56967359 147.90334065 29.65478516 142.046875 C29.68294281 139.86368582 29.70418314 137.68039568 29.71826172 135.49707031 C29.73976291 132.3514456 29.78645146 129.20702809 29.83789062 126.06176758 C29.83911926 125.09170273 29.8403479 124.12163788 29.84161377 123.12217712 C30.00624589 115.43748119 32.00141595 110.59417238 37.32226562 104.89379883 C38.08796875 104.0681543 38.08796875 104.0681543 38.86914062 103.22583008 C39.38992188 102.67797852 39.91070313 102.13012695 40.44726562 101.56567383 C41.2284375 100.72069336 41.2284375 100.72069336 42.02539062 99.85864258 C43.47167183 98.31375129 44.94776475 96.80872986 46.44726562 95.31567383 C47.40632813 94.34887695 47.40632813 94.34887695 48.38476562 93.36254883 C51.74034404 91.65933857 53.89255919 92.30550967 57.44726562 93.31567383 C59.75415305 95.107657 61.55141646 96.70947579 63.50976562 98.81567383 C64.00025391 99.3080957 64.49074219 99.80051758 64.99609375 100.30786133 C66.55521168 101.92229619 67.99373369 103.60558116 69.44726562 105.31567383 C69.96913956 105.87915024 70.49101349 106.44262665 71.02870178 107.0231781 C76.97454638 114.39320967 76.21320003 122.42609639 76.03320312 131.38208008 C76.02199463 133.0282994 76.01346226 134.67453892 76.00747681 136.32078552 C75.98470793 140.62684639 75.92589124 144.93166809 75.85925293 149.23724365 C75.79756992 153.64147179 75.77040663 158.04590268 75.74023438 162.45043945 C75.67613333 171.07274915 75.57390279 179.69405679 75.44726562 188.31567383 C54.93448337 198.4460524 54.93448337 198.4460524 46.00976562 200.25317383 C45.14472412 200.44226318 44.27968262 200.63135254 43.38842773 200.82617188 C8.85107986 208.01061701 -30.8005928 207.14186696 -61.22851562 187.59692383 C-78.705846 174.79832611 -88.30788004 154.67950746 -92.20898438 133.80395508 C-97.20750609 100.98277942 -96.3671972 63.38613922 -76.71679688 35.19848633 C-61.94483532 15.52031371 -42.21978889 4.61095891 -18.04980469 0.72583008 C-12.03938261 0.02089367 -6.04291208 -0.01816102 0 0 Z " fill="#FFFEFE" transform="translate(808.552734375,85.684326171875)"/>
<path d="M0 0 C2.24593573 1.60973522 4.0068984 3.07700918 5.9375 5 C6.42412109 5.45761719 6.91074219 5.91523437 7.41210938 6.38671875 C8.40198333 7.33378033 9.37091896 8.30324294 10.31698608 9.29406738 C11.96919799 11.02239889 11.96919799 11.02239889 13.80203247 12.51086426 C18.30033107 16.70194556 19.50984596 20.02258183 19.88647461 26.15039062 C19.95209511 28.98733077 19.93173005 31.81893773 19.90234375 34.65625 C19.91174007 36.16941466 19.92420478 37.68256309 19.93959045 39.19567871 C19.97168677 43.15466956 19.96242231 47.1124968 19.94421387 51.0715332 C19.93301924 55.12073277 19.96139464 59.16964025 19.98632812 63.21875 C20.02936732 71.1460754 20.02866486 79.07261093 20 87 C20.70589767 86.27554436 20.70589767 86.27554436 21.42605591 85.53645325 C22.36008743 84.58798775 22.36008743 84.58798775 23.31298828 83.62036133 C23.92796173 82.9930159 24.54293518 82.36567047 25.17654419 81.71931458 C27.53460997 79.49592268 29.96072481 78.08935324 32.875 76.6875 C33.82117188 76.21699219 34.76734375 75.74648437 35.7421875 75.26171875 C43.36639905 72.30893658 50.68088543 71.63800752 58.8125 71.6875 C59.78227783 71.69313965 60.75205566 71.6987793 61.7512207 71.70458984 C75.28936965 71.93379998 87.22718877 75.27707958 97.3125 84.75 C111.32274071 99.96357427 111.60113229 117.70738393 111.4609375 137.26953125 C111.45854847 139.48532504 111.45764872 141.70112088 111.4581604 143.91691589 C111.45505354 148.52685489 111.43863764 153.1364782 111.41162109 157.74633789 C111.37738367 163.66356882 111.37000101 169.58045855 111.37151146 175.49777699 C111.37096916 180.05725883 111.36002888 184.61666568 111.34550858 189.17612267 C111.3391381 191.35988486 111.3352011 193.54365554 111.33372116 195.72742653 C111.32940554 198.76220022 111.31194989 201.79660409 111.29052734 204.83129883 C111.29143372 205.73561646 111.29234009 206.63993408 111.29327393 207.57165527 C111.22898068 213.77101932 111.22898068 213.77101932 109 216 C106.09441006 216.22453744 103.28696598 216.32817082 100.37890625 216.3359375 C99.52320541 216.3425943 98.66750458 216.3492511 97.78587341 216.35610962 C95.97437696 216.36624372 94.16284313 216.37092641 92.35131836 216.37060547 C89.5766867 216.37497765 86.80364675 216.41128482 84.02929688 216.44921875 C82.27083879 216.45508692 80.51237312 216.45905631 78.75390625 216.4609375 C77.92258682 216.47530853 77.0912674 216.48967957 76.23475647 216.50448608 C70.51804366 216.45904599 70.51804366 216.45904599 68.2809906 214.47676086 C66.47886999 210.99240915 66.58449393 207.717364 66.61523438 203.88598633 C66.6098616 203.07080536 66.60448883 202.25562439 66.59895325 201.41574097 C66.58917857 199.64735597 66.58623017 197.87892302 66.58930969 196.11051369 C66.59379212 193.30567763 66.57977323 190.50147113 66.56091309 187.69670105 C66.52412484 181.73531104 66.5104314 175.77398677 66.5 169.8125 C66.4878995 162.91938958 66.4661944 156.02658515 66.41999817 149.13361168 C66.40649114 146.38117114 66.41058853 143.62912354 66.41540527 140.87666321 C66.40605602 139.17143263 66.39588504 137.46620629 66.38476562 135.76098633 C66.39091385 135.00481522 66.39706207 134.2486441 66.40339661 133.46955872 C66.32794247 126.82996549 64.73903333 120.89838888 61.3125 115.1875 C55.81104671 109.98342256 51.10104279 108.71933357 43.5 108.5 C36.0369052 108.73692364 31.33332987 109.69928588 26.00390625 114.9765625 C20.88361697 120.64287861 19.85186975 123.81210652 19.84228516 131.44116211 C19.83720444 132.31445663 19.83212372 133.18775116 19.82688904 134.08750916 C19.81617385 135.98746163 19.80755819 137.88742682 19.80076981 139.78739738 C19.78900554 142.79189081 19.76956001 145.79623888 19.74765015 148.80067444 C19.68594437 157.34419952 19.63193432 165.88770978 19.59863281 174.43139648 C19.57772782 179.6533577 19.54245918 184.87505432 19.49787521 190.0968647 C19.48368243 192.08998062 19.47498542 194.08314336 19.47182083 196.0763073 C19.466931 198.86096912 19.44382369 201.64492429 19.41650391 204.42944336 C19.41951004 205.25708191 19.42251617 206.08472046 19.4256134 206.93743896 C19.34366062 212.54114175 19.34366062 212.54114175 17.71855736 214.71099186 C14.68299643 216.98782174 10.89733894 216.42510943 7.24609375 216.3984375 C5.96110741 216.40274277 5.96110741 216.40274277 4.65016174 216.40713501 C2.84041685 216.4091756 1.03064991 216.40364607 -0.77905273 216.39111328 C-3.55567453 216.37503951 -6.33084503 216.39097182 -9.10742188 216.41015625 C-10.86458656 216.4081742 -12.62175033 216.40433132 -14.37890625 216.3984375 C-15.62892174 216.40754654 -15.62892174 216.40754654 -16.90419006 216.4168396 C-19.24047852 216.38818359 -19.24047852 216.38818359 -23 216 C-25.44659767 212.3301035 -25.29363577 209.57306184 -25.28761292 205.32807922 C-25.29426073 204.53895132 -25.30090854 203.74982341 -25.30775779 202.93678254 C-25.32749456 200.28374837 -25.33283512 197.6308827 -25.33813477 194.9777832 C-25.34902678 193.07901058 -25.36069814 191.18024229 -25.37309265 189.28147888 C-25.40363821 184.11600397 -25.42062614 178.95057367 -25.43330884 173.78502679 C-25.44138851 170.55786664 -25.45156896 167.33071938 -25.46232414 164.10356712 C-25.49505592 154.00683648 -25.51895093 143.91013702 -25.531138 133.81336051 C-25.54538952 122.15784713 -25.58924726 110.50293961 -25.65863949 98.84762698 C-25.710422 89.83943951 -25.73531139 80.8314243 -25.73996013 71.82309026 C-25.74335871 66.44252117 -25.75822342 61.06256432 -25.80124092 55.6821537 C-25.84101614 50.6184132 -25.84738661 45.55571164 -25.82834053 40.49186134 C-25.82707513 38.63590836 -25.83773464 36.77990208 -25.86135483 34.92409897 C-26.05054397 19.15649933 -26.05054397 19.15649933 -21.59165955 13.98478699 C-20.42694343 12.95199686 -19.23289655 11.95036055 -18 11 C-16.86498047 9.79923828 -16.86498047 9.79923828 -15.70703125 8.57421875 C-14.76923828 7.64029297 -14.76923828 7.64029297 -13.8125 6.6875 C-12.86310547 5.73423828 -12.86310547 5.73423828 -11.89453125 4.76171875 C-7.90266612 1.04969571 -5.70735105 -0.91431907 0 0 Z " fill="#FFFEFE" transform="translate(573,70)"/>
<path d="M0 0 C10.84449837 9.18362925 17.40332701 22.7466962 18.9765625 36.828125 C19.60921378 47.09483433 19.81815878 57.18877323 13.3515625 65.703125 C8.37433415 70.97898705 1.02246353 73.6216645 -6.1239624 73.98634338 C-7.34085754 74.00188766 -8.55775269 74.01743195 -9.81152344 74.03344727 C-10.48510391 74.04334686 -11.15868439 74.05324646 -11.85267639 74.06344604 C-14.07101979 74.09494158 -16.28938457 74.11977097 -18.5078125 74.14453125 C-20.04909816 74.16511111 -21.5903783 74.18610785 -23.13165283 74.20750427 C-27.18234788 74.2626184 -31.23309297 74.31207454 -35.28387451 74.36035156 C-39.41976356 74.41064456 -43.55558022 74.46628987 -47.69140625 74.52148438 C-55.80202207 74.62893552 -63.91269857 74.73040928 -72.0234375 74.828125 C-71.71854521 76.27396148 -71.40917057 77.71885325 -71.09790039 79.16333008 C-70.92609756 79.96805252 -70.75429474 80.77277496 -70.57728577 81.60188293 C-68.75870481 88.91182985 -63.5853048 93.68039862 -57.46484375 97.63671875 C-47.51726312 102.4911381 -34.31100226 102.28895803 -23.59375 100.140625 C-18.86833078 98.49700092 -14.766577 96.09820804 -10.4609375 93.578125 C-4.03238781 89.98543198 0.8555813 89.69073419 7.90625 91.63671875 C12.36177769 93.15538004 16.46580396 94.59790653 19.9765625 97.828125 C21.10013113 105.41221328 19.04482474 114.57591374 14.5390625 120.8203125 C-1.03117895 135.2677 -27.36625243 135.497419 -47.19580078 134.95996094 C-65.10503834 134.12495936 -82.19431147 129.6816616 -96.0234375 117.828125 C-97.00376953 116.99667969 -97.00376953 116.99667969 -98.00390625 116.1484375 C-112.33386793 102.92564725 -116.09813075 84.34177865 -117.20703125 65.75 C-117.68794127 45.04258024 -113.50961364 23.61078666 -99.7734375 7.515625 C-91.77517714 -0.82097124 -82.95285879 -6.47268625 -72.0234375 -10.171875 C-71.12109375 -10.4915625 -70.21875 -10.81125 -69.2890625 -11.140625 C-46.31581894 -17.84632853 -19.39257514 -13.93058369 0 0 Z M-64.8671875 23.8828125 C-69.42880676 30.34510645 -71.82090646 37.02822186 -73.0234375 44.828125 C-66.24256117 44.92940666 -59.46187928 44.99954025 -52.68041992 45.04785156 C-50.37272859 45.06798763 -48.06508839 45.09529856 -45.75756836 45.12988281 C-42.44371942 45.17831215 -39.13054403 45.20107384 -35.81640625 45.21875 C-34.7819487 45.23939514 -33.74749115 45.26004028 -32.6816864 45.28131104 C-31.7209169 45.28161316 -30.7601474 45.28191528 -29.77026367 45.28222656 C-28.92421066 45.29110901 -28.07815765 45.29999146 -27.20646667 45.30914307 C-24.85456883 45.00626949 -24.85456883 45.00626949 -23.2401886 42.92962646 C-21.10206911 39.23679131 -22.05708272 35.83159482 -23.0234375 31.828125 C-25.5033084 24.8771568 -28.88836886 21.39565932 -35.5234375 18.078125 C-45.63154185 14.6451839 -57.47912939 15.64951045 -64.8671875 23.8828125 Z " fill="#FFFEFE" transform="translate(1443.0234375,155.171875)"/>
<path d="M0 0 C1.05882385 0.00081573 1.05882385 0.00081573 2.13903809 0.00164795 C19.31068767 0.06249889 35.83278484 2.53755372 49.25 14.375 C63.61170383 31.35764792 64.72190094 49.53839714 64.61328125 70.859375 C64.61276144 72.89341227 64.61328382 74.92745004 64.61479187 76.96148682 C64.61470284 81.19054823 64.60440552 85.41941625 64.58618164 89.6484375 C64.56332156 95.07232478 64.56298913 100.49593463 64.56969929 105.91985703 C64.57303365 110.10449704 64.56642214 114.2890735 64.55657005 118.47370148 C64.55272162 120.47521889 64.55156836 122.47674337 64.5531559 124.47826385 C64.5535256 127.26136409 64.54093886 130.04410246 64.5246582 132.82714844 C64.52713562 133.65306488 64.52961304 134.47898132 64.53216553 135.32992554 C64.49593561 139.19872445 64.44609324 141.08086014 62.25 144.375 C58.04270206 144.98388115 53.80263753 144.8898128 49.55639648 144.87597656 C47.45480722 144.87500798 45.35691717 144.91652289 43.25585938 144.9609375 C41.91407009 144.96614775 40.57226815 144.96883264 39.23046875 144.96875 C37.40358521 144.97938477 37.40358521 144.97938477 35.53979492 144.99023438 C31.35904514 144.20837987 29.94480402 142.58101264 27.25 139.375 C26.65574219 138.70855469 26.06148437 138.04210937 25.44921875 137.35546875 C24.70091797 136.46794922 24.70091797 136.46794922 23.9375 135.5625 C23.42574219 134.95792969 22.91398438 134.35335937 22.38671875 133.73046875 C22.01160156 133.28316406 21.63648438 132.83585938 21.25 132.375 C20.61384766 132.93767578 20.61384766 132.93767578 19.96484375 133.51171875 C18.07931107 135.15689781 16.16829969 136.7681866 14.25 138.375 C13.47462891 139.05369141 13.47462891 139.05369141 12.68359375 139.74609375 C1.51856459 148.72848563 -15.05320952 149.28811937 -28.75 148.375 C-39.86571735 146.83187689 -50.2707882 142.37754338 -57.32421875 133.421875 C-65.38948781 121.84324216 -66.98817995 108.13678211 -64.75 94.375 C-61.82991046 83.16295807 -55.77228362 74.24258117 -46.125 67.75 C-26.71737509 56.4750941 -0.86607376 53.58041052 21.25 54.375 C19.35908915 44.25118894 19.35908915 44.25118894 13.25 36.375 C3.94300671 31.24291617 -6.74484471 31.78365316 -16.75 34.375 C-22.05757889 36.56765917 -26.97467832 39.19145222 -31.75 42.375 C-39.89281493 42.98806908 -47.42565842 39.48612315 -54.75 36.375 C-55.40223116 28.22211048 -53.86271202 19.36690349 -49.48828125 12.3515625 C-37.58097638 0.53801594 -15.45895489 -0.0448782 0 0 Z M-17.6875 89.6875 C-21.19373146 94.25622584 -23.07742879 98.2025843 -22.75 104 C-22.04933215 108.47056551 -20.41709492 110.62467881 -16.75 113.375 C-9.9055608 116.65848097 -1.98701388 116.32422285 5.1875 114.125 C12.60032287 111.21853348 16.33621619 106.10026774 20.25 99.375 C21.4562252 95.75632441 21.35816918 92.44993749 21.3125 88.6875 C21.30798828 87.98560547 21.30347656 87.28371094 21.29882812 86.56054688 C21.28706927 84.83199462 21.26913454 83.10348635 21.25 81.375 C8.0895139 80.8825078 -6.93225051 81.22060146 -17.6875 89.6875 Z " fill="#FFFEFE" transform="translate(974.75,141.625)"/>
<path d="M0 0 C10.87948114 10.29560916 15.23542168 24.52936946 15.69359398 39.14670277 C15.76815038 44.09479713 15.74754298 49.03994071 15.7109375 53.98828125 C15.70854824 56.13681426 15.70764877 58.28534939 15.7081604 60.43388367 C15.70505444 64.90259156 15.68864533 69.37097358 15.66162109 73.83959961 C15.62737546 79.57523072 15.62000129 85.31050983 15.62151146 91.04623127 C15.62096916 95.46674474 15.610029 99.88718086 15.59550858 104.30766869 C15.58913879 106.42444462 15.58520126 108.5412293 15.58372116 110.6580143 C15.57940526 113.59939365 15.56194932 116.54039155 15.54052734 119.48168945 C15.54143372 120.35795486 15.54234009 121.23422028 15.54327393 122.13703918 C15.47898201 128.14601799 15.47898201 128.14601799 13.25 130.375 C9.10603778 130.93822239 4.95504616 131.00237292 0.77612305 131.07519531 C-0.60445057 131.10811606 -1.98469715 131.16244653 -3.36352539 131.23925781 C-14.76208617 131.87014916 -14.76208617 131.87014916 -19.68701172 128.16601562 C-22.4698962 125.10368523 -24.8955703 122.0838594 -26.75 118.375 C-27.41 118.375 -28.07 118.375 -28.75 118.375 C-29.41 119.24125 -30.07 120.1075 -30.75 121 C-38.31391119 130.35536384 -50.37187742 132.98502394 -61.75 134.375 C-77.28398742 135.2745182 -90.37841408 133.25565179 -102.5 123.0625 C-112.56216403 111.04380407 -114.82480128 100.06080241 -113.95703125 84.65478516 C-112.87730764 72.7650928 -107.51475879 64.13998676 -98.5 56.625 C-79.00451534 42.36563369 -51.17865476 40.00701066 -27.75 40.375 C-29.05790139 30.64437722 -29.05790139 30.64437722 -34.5 22.90234375 C-42.61565009 17.84415211 -52.53762836 18.30604505 -61.75 19.375 C-66.35512646 20.45450595 -70.03175047 22.30809377 -74.02734375 24.7890625 C-78.7330982 27.66882334 -81.74973193 29.0462065 -87.2734375 28.03125 C-100.63412017 24.49087983 -100.63412017 24.49087983 -103.75 21.375 C-104.05432348 13.83937091 -102.18558312 5.15792697 -98.09765625 -1.19140625 C-76.66606423 -23.40751578 -21.91829806 -17.72587192 0 0 Z M-65.65625 75.12109375 C-70.18780113 80.26183925 -71.16575286 83.73819601 -71.09375 90.60546875 C-70.54413576 95.03361074 -69.14010951 96.50077672 -65.75 99.375 C-59.64564089 102.65050977 -51.61364592 102.24089511 -44.99609375 100.7578125 C-37.38013089 98.13001463 -33.20299096 93.36824109 -29.0703125 86.640625 C-27.42773693 82.5779233 -27.41005675 79.32313423 -27.5625 75 C-27.57603516 74.26394531 -27.58957031 73.52789062 -27.60351562 72.76953125 C-27.63855131 70.97103257 -27.69234712 69.17291578 -27.75 67.375 C-39.71073243 66.92740502 -56.25557734 66.5102317 -65.65625 75.12109375 Z " fill="#FFFEFE" transform="translate(384.75,155.625)"/>
<path d="M0 0 C4.09191627 2.99927196 7.09403167 6.41691829 10.125 10.4375 C13.80722884 15.22690241 17.56410529 19.91670315 21.5 24.5 C25.6914341 29.3958145 29.70839124 34.40078498 33.6640625 39.48828125 C37.36158913 44.22736468 41.16511826 48.87162273 45 53.5 C50.70448315 60.38868139 56.26745049 67.37363983 61.76708984 74.42626953 C64.81064543 78.31117237 67.90736193 82.15414062 71 86 C69.66090347 89.06479588 68.2945493 90.86662815 65.69140625 92.953125 C65.03269531 93.48550781 64.37398437 94.01789063 63.6953125 94.56640625 C62.63957031 95.39978516 62.63957031 95.39978516 61.5625 96.25 C60.83675781 96.83136719 60.11101562 97.41273437 59.36328125 98.01171875 C54.6366011 101.77462547 49.80584461 105.35592245 44.88671875 108.86328125 C39.13255649 113.12245142 33.64717328 117.72589694 28.11572266 122.26806641 C25.98333619 124.01364102 23.84284585 125.74872185 21.69921875 127.48046875 C12.76488398 134.68974917 12.76488398 134.68974917 4.06640625 142.1796875 C1.15925979 144.74061425 -1.79438805 147.24529944 -4.75 149.75 C-5.30582764 150.22260254 -5.86165527 150.69520508 -6.43432617 151.18212891 C-9.22754157 153.54610682 -12.04143079 155.84570203 -15 158 C-19.28896369 156.45756526 -21.43522686 153.20563013 -24.0625 149.6875 C-25.04084624 148.40852985 -26.02136989 147.13122277 -27.00390625 145.85546875 C-27.50164551 145.20884277 -27.99938477 144.5622168 -28.51220703 143.89599609 C-30.76224634 141.02861748 -33.12423182 138.26334415 -35.5 135.5 C-39.69173308 130.60445328 -43.7084038 125.59919887 -47.6640625 120.51171875 C-51.3615864 115.77263883 -55.16501424 111.12828768 -59 106.5 C-63.78150357 100.72832484 -68.47622496 94.90276467 -73.07348633 88.98339844 C-76.97570788 83.97699488 -81.06177095 79.1412058 -85.19921875 74.328125 C-87 72 -87 72 -87 70 C-75.45 70 -63.9 70 -52 70 C-48.04 52.675 -48.04 52.675 -44 35 C-31.79 34.67 -19.58 34.34 -7 34 C-5.44072625 25.43026344 -5.44072625 25.43026344 -3.88916016 16.85913086 C-2.84003281 11.14356361 -1.76195554 5.54110316 0 0 Z " fill="#D1B22F" transform="translate(1617,4)"/>
<path d="M0 0 C1.17933105 -0.01385742 2.35866211 -0.02771484 3.57373047 -0.04199219 C15.63036828 0.02198662 26.80681123 2.13175869 36.515625 9.64453125 C40.32639084 14.49559237 40.97564781 22.89016683 41.375 28.9375 C40.875 32.375 40.875 32.375 39 34.6875 C32.41396251 38.24396024 25.3477747 40.44253924 17.875 39.375 C15.37926482 38.00479245 13.1338716 36.49093396 10.85546875 34.78515625 C5.45169178 30.93749652 -1.80434636 31.96928237 -8.125 32.375 C-12.37253132 33.37482474 -14.64410725 34.65366087 -17.125 38.375 C-17.64375232 42.37680364 -17.77090454 44.50063141 -15.3359375 47.796875 C-11.1617422 51.69416896 -5.56660878 53.27995254 -0.3125 55.25 C1.94334665 56.1259621 4.19855572 57.0035679 6.453125 57.8828125 C7.55076172 58.30723633 8.64839844 58.73166016 9.77929688 59.16894531 C30.29055161 67.1599231 30.29055161 67.1599231 36.875 73.375 C37.42414063 73.88417969 37.97328125 74.39335937 38.5390625 74.91796875 C46.49217929 83.1649199 47.46090848 93.06105387 47.34765625 104.02124023 C46.91311884 116.53898784 42.25467404 125.44369147 33.25 134 C15.72353498 148.54464678 -8.344762 149.61465803 -30.046875 148.1015625 C-43.52118651 146.48586451 -56.36777595 142.13222405 -66.125 132.375 C-66.75722419 127.94801841 -65.3845109 125.69075732 -62.87890625 122.109375 C-61.87053711 120.65144531 -61.87053711 120.65144531 -60.84179688 119.1640625 C-60.13087891 118.16117187 -59.41996094 117.15828125 -58.6875 116.125 C-57.98044922 115.10664063 -57.27339844 114.08828125 -56.54492188 113.0390625 C-51.3907967 105.6407967 -51.3907967 105.6407967 -50.125 104.375 C-46.79883652 103.92646307 -45.38518629 104.21126543 -42.51171875 106.01953125 C-41.62097656 106.73496094 -40.73023438 107.45039063 -39.8125 108.1875 C-31.40011319 114.59585927 -22.70192173 117.29400584 -12.125 116.375 C-7.12535461 115.43153051 -3.14687007 114.07628338 1.0625 111.1875 C2.86853171 108.385037 3.24742743 107.55714668 3.1875 104.375 C2.65199315 102.05866142 2.24108068 100.71495957 0.48242188 99.08178711 C-5.96778893 95.13663812 -12.87363051 92.57851308 -19.9375 89.9375 C-51.91871401 77.96802268 -51.91871401 77.96802268 -59.22265625 63.07421875 C-63.25113373 51.02366489 -63.2710738 37.59544661 -57.875 26 C-51.29264492 14.22405262 -40.89517035 7.42545051 -28.125 3.375 C-26.76181641 2.92640625 -26.76181641 2.92640625 -25.37109375 2.46875 C-16.96744568 0.19692524 -8.66475617 0.06118698 0 0 Z " fill="#FFFEFE" transform="translate(1546.125,141.625)"/>
<path d="M0 0 C8.10683941 2.58703552 15.75503714 11.03527863 20.65625 17.84765625 C21.6957275 20.96608875 21.77119838 23.12241211 21.75390625 26.390625 C21.74907227 28.0003418 21.74907227 28.0003418 21.74414062 29.64257812 C21.73157227 31.3219043 21.73157227 31.3219043 21.71875 33.03515625 C21.71423828 34.16630859 21.70972656 35.29746094 21.70507812 36.46289062 C21.69328498 39.25786552 21.6768265 42.05273445 21.65625 44.84765625 C22.45321289 44.8319458 23.25017578 44.81623535 24.07128906 44.80004883 C27.6828705 44.73768036 31.29433861 44.69865886 34.90625 44.66015625 C36.78763672 44.62245117 36.78763672 44.62245117 38.70703125 44.58398438 C39.91230469 44.57431641 41.11757813 44.56464844 42.359375 44.5546875 C44.02468262 44.53112183 44.02468262 44.53112183 45.72363281 44.50708008 C49.07012316 44.89572094 50.43061796 45.31607032 52.65625 47.84765625 C53.15795898 50.61914062 53.15795898 50.61914062 53.15234375 53.94140625 C53.15298828 55.13636719 53.15363281 56.33132812 53.15429688 57.5625 C53.13431641 58.81160156 53.11433594 60.06070313 53.09375 61.34765625 C53.10083984 62.59675781 53.10792969 63.84585938 53.11523438 65.1328125 C53.05119203 74.2662357 53.05119203 74.2662357 51.53211975 76.50256348 C48.7717543 78.48188407 46.60376672 78.18631032 43.23828125 78.140625 C41.98466797 78.13095703 40.73105469 78.12128906 39.43945312 78.11132812 C37.47395508 78.07362305 37.47395508 78.07362305 35.46875 78.03515625 C34.13347837 78.02010592 32.79819063 78.00641812 31.46289062 77.99414062 C28.19360424 77.95873319 24.92512907 77.90934515 21.65625 77.84765625 C21.69440647 86.1847402 21.75391118 94.52128989 21.84015274 102.85800171 C21.87954528 106.72973241 21.91177363 110.60123849 21.92724609 114.47314453 C21.94246752 118.21466366 21.97700837 121.9555649 22.02455902 125.69680786 C22.03931672 127.11917733 22.04728778 128.54163504 22.04813385 129.96408081 C22.05880206 138.91203536 22.25007067 145.78870962 28.34375 152.78515625 C35.37047749 156.01365266 42.41649753 154.67648725 49.65625 152.84765625 C52.4979588 158.09388788 54.77365599 163.47142731 56.90625 169.03515625 C57.17646973 169.72416016 57.44668945 170.41316406 57.72509766 171.12304688 C60.3669163 178.14297913 60.3669163 178.14297913 59.65625 181.84765625 C56.7861346 184.84316504 53.31226337 185.79714986 49.40625 186.97265625 C48.32859375 187.30523437 47.2509375 187.6378125 46.140625 187.98046875 C30.7683687 191.80629935 11.12345346 191.88004099 -3.21875 184.66015625 C-13.85010265 178.00074018 -18.96992516 169.04538081 -21.91866684 157.01873779 C-22.57967138 153.64270486 -22.60642099 150.29534847 -22.57080078 146.87109375 C-22.57109283 146.1189006 -22.57138489 145.36670746 -22.57168579 144.59172058 C-22.57030584 142.13524346 -22.55480852 139.67907959 -22.5390625 137.22265625 C-22.53532761 135.5077328 -22.53248289 133.79280721 -22.53048706 132.07788086 C-22.52288809 127.58654788 -22.50327209 123.09534635 -22.4810791 118.60406494 C-22.46053978 114.01210304 -22.45146812 109.4201197 -22.44140625 104.828125 C-22.42002235 95.83457799 -22.38593201 86.84112809 -22.34375 77.84765625 C-22.93389893 77.8633667 -23.52404785 77.87907715 -24.13208008 77.89526367 C-26.80670586 77.95763564 -29.48117864 77.99665282 -32.15625 78.03515625 C-33.08501953 78.06029297 -34.01378906 78.08542969 -34.97070312 78.11132812 C-35.86337891 78.12099609 -36.75605469 78.13066406 -37.67578125 78.140625 C-38.49796143 78.15633545 -39.3201416 78.1720459 -40.16723633 78.18823242 C-42.86742527 77.76571267 -43.72671423 77.0171194 -45.34375 74.84765625 C-45.99543902 70.37758145 -45.80686084 65.85981976 -45.78125 61.34765625 C-45.8112207 59.47400391 -45.8112207 59.47400391 -45.84179688 57.5625 C-45.84115234 56.36753906 -45.84050781 55.17257813 -45.83984375 53.94140625 C-45.84169678 52.84505859 -45.8435498 51.74871094 -45.84545898 50.61914062 C-45.34375 47.84765625 -45.34375 47.84765625 -43.59692383 45.98510742 C-41.08742303 44.71825682 -39.59078417 44.49805421 -36.796875 44.5546875 C-35.95253906 44.56435547 -35.10820312 44.57402344 -34.23828125 44.58398438 C-32.92923828 44.62168945 -32.92923828 44.62168945 -31.59375 44.66015625 C-30.26150391 44.68045898 -30.26150391 44.68045898 -28.90234375 44.70117188 C-26.71552422 44.73644316 -24.52995034 44.78572873 -22.34375 44.84765625 C-22.38040771 44.10193359 -22.41706543 43.35621094 -22.45483398 42.58789062 C-22.60127872 39.17490745 -22.69167208 35.76258612 -22.78125 32.34765625 C-22.83990234 31.17460937 -22.89855469 30.0015625 -22.95898438 28.79296875 C-23.07575239 22.85448124 -23.04990966 18.84125905 -19.0390625 14.23828125 C-17.83005986 13.0837498 -16.59823324 11.95260062 -15.34375 10.84765625 C-14.14913225 9.60445687 -12.96064445 8.35530683 -11.78125 7.09765625 C-4.2230976 -0.27450134 -4.2230976 -0.27450134 0 0 Z " fill="#FFFEFE" transform="translate(466.34375,100.15234375)"/>
</svg>
